<svg version="1.2" xmlns="http://www.w3.org/2000/svg" viewBox="0 0 61 62" width="61" height="62">
	<title>Group 38 (2)</title>
	<defs>
		<clipPath clipPathUnits="userSpaceOnUse" id="cp1">
			<path d="m51.64 68.99l-39.99 10.92-16.65-60.99 39.99-10.92z"/>
		</clipPath>
	</defs>
	<style>
		.s0 { fill: #bc8660 } 
		.s1 { fill: #f5dfd2 } 
	</style>
	<path fill-rule="evenodd" class="s0" d="m30.5 61c-16.9 0-30.5-13.6-30.5-30.5 0-16.9 13.6-30.5 30.5-30.5 16.9 0 30.5 13.6 30.5 30.5 0 16.9-13.6 30.5-30.5 30.5z"/>
	<g id="Clip-Path" clip-path="url(#cp1)">
		<g>
			<path class="s1" d="m11.5 78.3c0.6 0.6 1.4 1 2.2 1 0.8-0.1 1.5-0.5 1.8-1.2 0.4-0.6 0.2-1.5-0.3-2-0.6-0.4-1.6-0.4-2 0.2 0-1.4 1.1-2.7 2.4-3.3 1.3-0.6 2.8-0.8 4.2-0.8-0.3 1.1 0.2 2.4 1.1 3 0.6-1.6 2-2.8 3.5-3.7 1.5-0.9 3.1-1.7 4.2-3 1.2-1.4 1.7-3.3 1.5-5 1.5 0.3 2.9 1.1 3.8 2.3 0.3 0.3 0.7 0.7 1.1 0.6 0.1-0.1 0.3-0.2 0.4-0.3 0.5-0.6 0.7-1.3 0.7-2.1 1.8-0.3 3.6-1 5-2.2 1.5-1.2 2.5-3 2.5-4.8 0.1-1.8-0.7-3.5-2-4.7-1.4-1.1-3.2-1.5-5-1.2-1.5 0.3-2.9 1.2-4.1 2.2-0.2 0.1-0.3 0.3-0.5 0.3-0.4 0.1-0.7-0.2-0.9-0.5-0.6-0.8-0.7-1.8-0.4-2.8 0.2-1.1 0.8-2.1 1.4-3.1 0.2-0.2 2-2.8 2.1-2.7 0.7 0.8 1.3 1.7 2.1 2.4-0.9 0.7-0.6 2.5 0.5 2.9 1.1 0.5 2.5-0.6 2.4-1.8 1.8 0.8 4.6-0.6 4.6-2.8-0.6 0.7-1.7 0.4-2.4-0.1-0.7-0.6-1.5-1.3-2.3-1.3-1 0-1.9 1-1.9 2-0.9-0.6-1.7-1.4-2.1-2.4 0-0.2-0.1-0.3 0-0.4q0-0.2 0.2-0.3 0.5-0.6 1.1-1.1 0.1-0.1 0.2-0.1 0.1 0 0.2 0c0.7 0.4 1.7 0.4 2.5 0 0.7-0.4 1.2-1 1.9-1.4 0.7-0.4 1.8-0.4 2.1 0.3 0.4-0.9 0.1-2.1-0.5-2.8-0.7-0.8-1.8-1.1-2.8-0.9-1.1 0.2-1.7 1-2.6 1.5 0-1.5 0.3-3 0.1-4.6-0.3-2-1.3-4.4 0.5-6 0.4-0.3 0.9-0.6 1.2-0.9 1-1-1.1-3.3-1.2-3.2-1.5 1.1-2.7 2.7-3.3 4.4 0.1-0.3-10.3-5.4-11.1-6-1.1-0.8-2.1-1.6-2.8-2.8q-0.8-1.3-0.8-2.8c-0.1-1.1 0.8-2.3 1.8-2.6 0.1 0.3 0.2 0.6 0.3 0.9 0.3 0.9 1.1 1.3 2.1 1.1 1.4-0.4 2.4-1.7 1.4-3.1-0.5-0.8-1.5-1.1-2.5-1.2-1.4 0-2.9 0.7-3.8 1.8-1.8 2.2-1.3 5.5 0.3 7.7 1.7 2.3 4.2 3.7 6.7 4.9 2.9 1.5 6.4 3.1 7.7 6.3 0.8 2.1 0.9 4.2 0.1 6.3q-0.1 0.1-0.1 0.2-0.2-0.2-0.4-0.4c-0.5-0.4-1-0.9-1.6-1.3-1-0.8-2.1-0.9-3.3-0.2q-0.1 0-0.1 0c0-0.5-0.1-1-0.2-1.5-0.3-1.4-1-2.5-2.3-3.1-0.8-0.3-1.7-0.7-2.4-0.9 1.4 2.1 2.4 3.9 2.5 6.5 0.1 1.6-0.2 3.2 0.2 4.7 0.4 1.2 1.1 2.3 1.9 3.2 0.5 0.6 1.4 1.3 1.5 1.9 0.1 0.6-0.2 1.2-0.4 1.8-0.3 0.7-0.1 1.5 0.1 2.3q0.3 1.3 0.5 2.7 0.1 0.1 0 0.2c0 0.1-0.1 0.2-0.3 0.2-0.5 0.2-1.1 0.2-1.7 0.2 0.4 1.7 2.3 2.8 3.9 2.3 0.3 1.2 1.3 2.3 2.4 2.7 1.2 0.3 2.6 0.1 3.5-0.7 0.5-0.5 1-1.2 1-1.9 0.1-0.7-0.3-1.5-0.9-1.9 0.2 1-1 1.8-1.9 1.4-0.9-0.4-1.2-1.7-0.7-2.5 0.5-0.9 1.5-1.3 2.4-1.3 2.1 0 4 2 3.8 4-0.2 1.4-1.1 2.6-2.2 3.5-1.8 1.5-4.4 2.1-6.7 1.8-0.8-0.1-1.7-0.4-2-1.2-0.2-0.4-0.2-0.9-0.3-1.3-0.1-0.5-0.4-0.9-0.9-1-0.5-0.1-1 0.4-1.5 0.4-0.5 0-0.8-0.4-1.1-0.8q-1.2-1.3-2.3-2.7c-0.8 0.2-1 1.2-0.8 1.9 0.2 0.7 0.8 1.3 1.3 1.9 0.9 1.1 1.6 2.4 1.8 3.9 0.2 1.4-0.1 2.9-1 4.1-0.7 0.8-1.8 1.4-2.8 1.8-2.7 1.1-5.8 1.1-8.4 2.2-1.2 0.5-2.3 1.2-3 2.2-0.7 1-1.1 2.4-0.7 3.6q0.2 0.5 0.6 1zm17.1-35.5c-0.3-0.7-0.5-1.5-0.4-2.4q0.1-0.5 0.4-0.9c0.8-1.4 2.5-1.1 3.2 0.2 0.5 0.7 0.6 1.7 0.4 2.5 0 0.3-1.1 3.2-1.1 3.1-1.1-0.6-1.9-1.4-2.5-2.5z"/>
		</g>
	</g>
</svg>