<?xml version="1.0" standalone="no"?>
<!DOCTYPE svg PUBLIC "-//W3C//DTD SVG 20010904//EN"
 "http://www.w3.org/TR/2001/REC-SVG-20010904/DTD/svg10.dtd">
<svg version="1.0" xmlns="http://www.w3.org/2000/svg"
 width="299.000000pt" height="248.000000pt" viewBox="0 0 299.000000 248.000000"
 preserveAspectRatio="xMidYMid meet">

<g transform="translate(0.000000,248.000000) scale(0.100000,-0.100000)"
fill="#000000" stroke="none">
<path d="M1433 2411 c-92 -42 -100 -176 -13 -228 30 -17 31 -19 28 -88 l-3
-70 -195 -6 c-220 -8 -288 -22 -422 -89 -181 -91 -312 -216 -399 -384 -32 -61
-35 -64 -77 -70 -108 -15 -219 -101 -268 -209 -23 -51 -28 -76 -28 -142 0 -69
4 -90 30 -145 52 -111 156 -192 265 -206 45 -6 48 -9 70 -57 33 -71 125 -193
190 -251 171 -154 344 -223 582 -233 70 -3 127 -9 127 -14 0 -18 65 -81 104
-101 57 -30 165 -30 221 -1 49 26 90 68 105 108 26 68 -19 153 -104 197 -57
30 -165 30 -222 0 -42 -21 -104 -84 -104 -104 0 -17 -211 -2 -302 21 -276 71
-508 301 -585 581 -24 90 -25 319 0 409 75 276 290 496 562 577 82 24 106 27
270 28 l180 1 0 -69 0 -69 -39 -14 c-51 -17 -102 -57 -121 -94 l-16 -29 -107
0 c-182 0 -299 -45 -413 -159 -76 -76 -122 -161 -144 -266 -18 -88 -18 -132 0
-220 42 -197 196 -359 390 -410 49 -12 136 -15 497 -15 l437 0 80 25 c183 58
314 195 361 381 25 97 25 160 0 258 -27 105 -63 169 -140 247 -112 114 -230
159 -412 159 l-107 0 -16 29 c-19 37 -70 77 -121 94 l-39 14 0 69 0 69 175 -1
c149 0 187 -4 255 -23 232 -65 420 -219 520 -426 72 -149 77 -177 82 -464 l5
-254 48 6 c111 13 226 102 278 215 37 81 37 193 0 274 -52 112 -162 199 -272
214 -38 6 -47 11 -57 38 -26 62 -130 205 -189 260 -118 108 -232 173 -385 217
-66 19 -113 24 -270 28 l-190 6 -3 70 c-3 69 -2 71 28 88 57 34 77 115 44 178
-15 29 -80 69 -114 69 -8 0 -34 -9 -57 -19z m-304 -1115 c27 -14 51 -53 51
-82 0 -46 -52 -94 -101 -94 -29 0 -89 62 -89 92 1 48 47 97 93 98 10 0 30 -6
46 -14z m810 0 c29 -15 51 -53 51 -87 0 -31 -62 -89 -95 -89 -34 0 -95 59 -95
92 1 48 47 97 93 98 10 0 30 -6 46 -14z m-225 -285 c13 -21 -17 -82 -59 -119
-95 -83 -235 -83 -330 0 -42 37 -72 98 -59 119 6 11 442 11 448 0z"/>
</g>
</svg>
